<?xml version="1.0" encoding="UTF-8"?>
<svg version="1.1" xmlns="http://www.w3.org/2000/svg" width="1043" height="102">
<path d="M0 0 C0.79685715 -0.00140991 1.59371429 -0.00281982 2.41471863 -0.00427246 C4.98355655 -0.00639458 7.55226848 -0.00014367 10.12109375 0.0078125 C11.43225159 0.01013885 11.43225159 0.01013885 12.76989746 0.01251221 C59.17078089 0.10944257 59.17078089 0.10944257 65.3046875 4.3359375 C67.10445023 6.91503673 66.95690873 8.89137655 66.93359375 12.0078125 C66.94519531 13.55082031 66.94519531 13.55082031 66.95703125 15.125 C66.50919655 18.50571294 65.56625867 20.40042951 63.55859375 23.1328125 C60.54170276 24.641258 57.37699518 24.47713005 54.05859375 24.6328125 C53.25486328 24.67414307 52.45113281 24.71547363 51.62304688 24.75805664 C45.79058005 25.03707897 39.95815652 25.20779693 34.12109375 25.34765625 C33.3789563 25.36627716 32.63681885 25.38489807 31.87219238 25.40408325 C28.13300285 25.49778933 24.39401771 25.58294256 20.65429688 25.65234375 C6.98726349 25.5158327 6.98726349 25.5158327 -5.44140625 30.1328125 C-5.11140625 31.4528125 -4.78140625 32.7728125 -4.44140625 34.1328125 C2.83471029 36.3827837 9.8546197 36.49704584 17.43359375 36.6328125 C37.27394028 36.99048577 37.27394028 36.99048577 43.55859375 40.1328125 C43.55859375 41.7828125 43.55859375 43.4328125 43.55859375 45.1328125 C38.06597288 46.47030135 33.52119067 45.6899546 28.05859375 44.7578125 C19.27818446 43.35269722 10.64689247 42.70387801 1.75585938 42.60009766 C-3.09431807 42.4877418 -6.53103317 42.34940971 -10.44140625 39.1328125 C-12.76874636 34.47813228 -11.87890868 28.46962547 -10.31640625 23.6953125 C-7.36154375 19.65700041 -3.80044205 18.4109252 1.03149414 17.42211914 C11.03040593 16.26374377 20.93497051 15.75019488 30.99609375 15.5703125 C33.93242153 15.51164365 36.86858422 15.44789823 39.8046875 15.37890625 C40.49194916 15.36298431 41.17921082 15.34706238 41.88729858 15.33065796 C46.83094634 15.19759662 51.6608085 14.80094329 56.55859375 14.1328125 C56.55859375 13.4728125 56.55859375 12.8128125 56.55859375 12.1328125 C45.80268883 10.15258928 35.34128188 9.82159657 24.43701172 9.87207031 C21.6947607 9.88276893 18.95316848 9.87212728 16.2109375 9.859375 C-3.76947709 9.3378656 -3.76947709 9.3378656 -22.44140625 15.1328125 C-27.09565307 24.31454344 -25.90205657 37.30456675 -25.83251953 47.36425781 C-25.81642985 50.128757 -25.83245336 52.89179477 -25.8515625 55.65625 C-26.29734346 70.8120532 -26.29734346 70.8120532 -22.44140625 85.1328125 C-10.05249104 92.18750476 7.64324667 90.45300385 21.46289062 90.39355469 C24.45072356 90.38275056 27.43796542 90.39356081 30.42578125 90.40625 C44.13994048 90.60817057 44.13994048 90.60817057 57.55859375 88.1328125 C57.88859375 87.8028125 58.21859375 87.4728125 58.55859375 87.1328125 C48.64684245 84.37954825 38.8001747 84.00788075 28.55859375 83.6953125 C20.80182932 83.41879848 13.08878646 83.0374951 5.37109375 82.1953125 C4.66017578 82.12062744 3.94925781 82.04594238 3.21679688 81.96899414 C-2.23382862 81.32335143 -6.93673514 80.75948397 -10.75390625 76.6328125 C-12.86623319 72.25168996 -13.88450623 68.01496861 -13.44140625 63.1328125 C-11.9790004 60.65485512 -11.07441362 59.36751896 -8.34423828 58.35522461 C1.03805928 56.9308824 10.46816547 56.22382613 19.92675781 55.53100586 C28.29447027 54.90992182 36.58375513 54.11014105 44.86328125 52.72265625 C45.91299606 52.55498497 45.91299606 52.55498497 46.98391724 52.38392639 C51.07912073 51.65184623 54.13939044 50.50475559 57.55859375 48.1328125 C56.93210937 47.96265625 56.305625 47.7925 55.66015625 47.6171875 C54.84289063 47.37484375 54.025625 47.1325 53.18359375 46.8828125 C52.37148437 46.65078125 51.559375 46.41875 50.72265625 46.1796875 C48.10073921 44.9113233 47.56477057 43.80857942 46.55859375 41.1328125 C47.21859375 40.1428125 47.87859375 39.1528125 48.55859375 38.1328125 C51.23828125 37.76953125 51.23828125 37.76953125 54.43359375 37.8203125 C55.48289062 37.82417969 56.5321875 37.82804687 57.61328125 37.83203125 C60.53241617 38.13013919 62.17591131 38.44997625 64.55859375 40.1328125 C66.93032414 43.44870308 66.88819066 46.70438068 66.93359375 50.6953125 C66.96195313 51.83097656 66.9903125 52.96664062 67.01953125 54.13671875 C66.55859375 57.1328125 66.55859375 57.1328125 64.93481445 58.74975586 C54.5140703 64.8150508 36.34149862 62.77648909 24.57885742 63.23730469 C9.38931715 62.77670156 9.38931715 62.77670156 -4.1887207 67.578125 C-5.65054631 69.05961186 -5.65054631 69.05961186 -5.44140625 71.1328125 C-4.13051943 71.45201189 -2.81755377 71.76267197 -1.50390625 72.0703125 C-0.77300781 72.24433594 -0.04210937 72.41835937 0.7109375 72.59765625 C7.85117716 73.93951199 15.06132441 74.32020226 22.30859375 74.59765625 C24.15235605 74.67614391 25.99610571 74.75492898 27.83984375 74.83398438 C30.70300711 74.95352832 33.56620932 75.07060974 36.4296875 75.18237305 C39.22300765 75.29277433 42.01575329 75.41329203 44.80859375 75.53515625 C46.07461426 75.58058815 46.07461426 75.58058815 47.36621094 75.62693787 C60.79361193 76.23384159 60.79361193 76.23384159 65.73925781 79.63047791 C68.42542278 83.32505865 68.4733338 86.91267985 68.80859375 91.3828125 C68.92460938 92.64351562 68.92460938 92.64351562 69.04296875 93.9296875 C69.23081589 95.99600602 69.39685714 98.06428645 69.55859375 100.1328125 C59.72633526 100.20264178 49.89413678 100.2557898 40.06167984 100.28824902 C35.49496893 100.30383595 30.92842897 100.32494517 26.36181641 100.35913086 C21.94623916 100.39197513 17.53082527 100.4097178 13.11513519 100.41744423 C11.43921084 100.42294312 9.76329437 100.43367972 8.08744049 100.45000267 C-16.81300832 100.68266069 -16.81300832 100.68266069 -25.44140625 93.1328125 C-38.30222245 77.41403714 -33.39264392 44.6086865 -31.69140625 25.8203125 C-31.62977295 25.05847656 -31.56813965 24.29664062 -31.50463867 23.51171875 C-30.77812744 16.77621279 -28.73902057 9.78074086 -23.50390625 5.1953125 C-16.19239741 0.27123512 -8.57673035 -0.0226575 0 0 Z " fill="#60CCF0" transform="translate(973.44140625,0.8671875)"/>
<path d="M0 0 C0.04637103 2.51949243 0.0925798 5.03898522 0.13760376 7.5585022 C0.1743841 9.49643234 0.21990296 11.43420138 0.27026367 13.37182617 C0.27775635 14.21205322 0.28524902 15.05228027 0.29296875 15.91796875 C0.3086792 16.77156982 0.32438965 17.6251709 0.34057617 18.50463867 C-0.10954953 21.80265644 -0.7759959 23.49523197 -3 26 C-5.77959945 26.45578452 -7.95941649 26.58689797 -10.73046875 26.48828125 C-11.39582642 26.48324585 -12.06118408 26.47821045 -12.7467041 26.47302246 C-15.22740897 26.44690086 -17.70749862 26.3770923 -20.1875 26.3125 C-25.735625 26.209375 -31.28375 26.10625 -37 26 C-37 42.5 -37 59 -37 76 C-25.45 76 -13.9 76 -2 76 C0 80 0 80 0 101 C-32.01 101 -64.02 101 -97 101 C-97 80 -97 80 -93 76 C-90.66503906 75.65283203 -90.66503906 75.65283203 -87.765625 75.5078125 C-86.71632813 75.44207031 -85.66703125 75.37632813 -84.5859375 75.30859375 C-82.37797477 75.18707824 -80.1696246 75.07239265 -77.9609375 74.96484375 C-71.81333349 74.56652711 -67.64082293 74.21821848 -63 70 C-60.03938554 63.65582616 -59.88415799 56.44029641 -59.68359375 49.53515625 C-59.66281265 48.85698349 -59.64203156 48.17881073 -59.62062073 47.48008728 C-59.55590691 45.34098169 -59.4966091 43.20176704 -59.4375 41.0625 C-59.39424016 39.60090076 -59.35062366 38.13931203 -59.30664062 36.67773438 C-59.20030749 33.1186016 -59.0988267 29.55935003 -59 26 C-60.01425049 26.01571045 -61.02850098 26.0314209 -62.07348633 26.04760742 C-65.83610087 26.10190319 -69.59868078 26.13634851 -73.36157227 26.16479492 C-74.99021223 26.17988243 -76.61881156 26.20035506 -78.24731445 26.22631836 C-80.58815535 26.26270449 -82.92845919 26.2797262 -85.26953125 26.29296875 C-86.36186821 26.31619453 -86.36186821 26.31619453 -87.47627258 26.33988953 C-92.50704647 26.34156473 -92.50704647 26.34156473 -94.9206543 24.66918945 C-96.87553099 21.64600647 -97.12110862 19.04518468 -97.09765625 15.55078125 C-97.09443359 14.70322266 -97.09121094 13.85566406 -97.08789062 12.98242188 C-97.07951172 12.10134766 -97.07113281 11.22027344 -97.0625 10.3125 C-97.05798828 9.41982422 -97.05347656 8.52714844 -97.04882812 7.60742188 C-97.03704983 5.40488013 -97.02060164 3.20247401 -97 1 C-88.04416436 0.86745591 -79.08830167 0.73695596 -70.13240147 0.60884857 C-65.9708215 0.5492607 -61.80925279 0.48904869 -57.64770508 0.42724609 C-38.43047355 0.14232662 -19.21996256 -0.08976854 0 0 Z M-71.125 10.875 C-72.03491699 10.95339111 -72.94483398 11.03178223 -73.88232422 11.11254883 C-78.78244124 11.59938652 -83.38137827 12.248109 -88 14 C-88.33 14.99 -88.66 15.98 -89 17 C-88.00202393 17.06731323 -88.00202393 17.06731323 -86.98388672 17.13598633 C-83.94650654 17.34833321 -80.91091928 17.58023389 -77.875 17.8125 C-76.82828125 17.88275391 -75.7815625 17.95300781 -74.703125 18.02539062 C-68.35306619 18.5277687 -63.11196522 19.11031801 -58.25 23.625 C-54.10965332 31.49165869 -54.6894233 40.64123749 -54.73925781 49.28369141 C-54.74997769 51.49539606 -54.73931559 53.70628873 -54.7265625 55.91796875 C-54.70917193 72.85888772 -54.70917193 72.85888772 -58.625 79.9375 C-64.28498866 84.85275331 -72.76798926 84.35289062 -79.90820312 84.56640625 C-84.01030727 84.73655665 -87.29573072 85.18804974 -91 87 C-90.67 87.66 -90.34 88.32 -90 89 C-74.7258328 92.61197462 -58.29294836 92.0973997 -42.69125366 92.17523193 C-41.17351376 92.18327066 -39.65578599 92.19427032 -38.13809204 92.20855713 C-27.70811281 92.29625874 -17.25904398 92.08282791 -7 90 C-6.34 89.34 -5.68 88.68 -5 88 C-10.35273006 85.43515018 -15.10323975 84.73655015 -21 84.5 C-26.89843512 84.23148864 -31.79556235 83.95938612 -37 81 C-45.24425631 68.50064366 -43.40097954 44.25463444 -41 30 C-40.13377051 26.88536061 -39.30925036 24.29740806 -37 22 C-30.42371222 18.37140609 -23.85033543 18.29673101 -16.47460938 17.91601562 C-11.00371357 17.60862879 -11.00371357 17.60862879 -6.35546875 14.93359375 C-5.90816406 14.29550781 -5.46085937 13.65742188 -5 13 C-16.35623813 9.03852158 -28.98608331 9.79696525 -40.875 9.8125 C-41.94618073 9.81240936 -41.94618073 9.81240936 -43.03900146 9.81231689 C-52.43136765 9.82356774 -61.76162884 10.06487226 -71.125 10.875 Z " fill="#60CCF0" transform="translate(413,0)"/>
<path d="M0 0 C1.61636353 0.03915527 1.61636353 0.03915527 3.26538086 0.07910156 C12.38640635 0.43926332 23.26522926 1.07906793 30.1015625 7.83203125 C41.74851074 23.80591836 36.62025499 51.76081457 36.0625 70.3125 C36.0429425 70.98437347 36.02338501 71.65624695 36.00323486 72.34848022 C35.23971728 98.01028272 35.23971728 98.01028272 33.5 99.75 C30.58184498 100.15464295 27.67855411 100.50459127 24.75 100.8125 C23.93789063 100.90337891 23.12578125 100.99425781 22.2890625 101.08789062 C18.32934984 101.51675201 14.48569818 101.7676871 10.5 101.75 C10.49191315 100.98737854 10.48382629 100.22475708 10.47549438 99.43902588 C10.39709596 92.20227969 10.30967482 84.96572217 10.21247292 77.72920609 C10.16282609 74.01010004 10.11649738 70.29101815 10.078125 66.57177734 C10.04086761 62.97304596 9.99440701 59.3745339 9.94193649 55.77599335 C9.91476954 53.75570443 9.89679135 51.73529854 9.87905884 49.71490479 C9.75556646 41.8813698 9.04789205 34.43305749 7.5 26.75 C5.85 27.08 4.2 27.41 2.5 27.75 C-1.96947891 40.5625062 -0.76133674 55.38941507 -0.97680664 68.82617188 C-1.37348265 92.56022398 -1.37348265 92.56022398 -5.5 98.75 C-8.00390625 99.48046875 -8.00390625 99.48046875 -11.0625 99.9375 C-12.05378906 100.09605469 -13.04507813 100.25460938 -14.06640625 100.41796875 C-16.83083757 100.68529146 -19.44543152 100.78416159 -22.21459961 100.77075195 C-23.01892929 100.76775589 -23.82325897 100.76475983 -24.65196228 100.76167297 C-25.26181473 100.75782089 -25.87166718 100.75396881 -26.5 100.75 C-26.51030746 100.07507507 -26.52061493 99.40015015 -26.53123474 98.70477295 C-26.64006645 91.63089798 -26.75459396 84.55713094 -26.87231445 77.48339844 C-26.91541953 74.849307 -26.95710989 72.21519199 -26.99731445 69.58105469 C-27.05561379 65.77792277 -27.11913108 61.97490686 -27.18359375 58.171875 C-27.20030624 57.00887878 -27.21701874 55.84588257 -27.23423767 54.64764404 C-26.60875878 39.86286843 -26.60875878 39.86286843 -31.5 26.75 C-34.7626151 25.37654429 -38.04293411 24.48940996 -41.5 23.75 C-41.5 23.09 -41.5 22.43 -41.5 21.75 C-31.6 21.255 -31.6 21.255 -21.5 20.75 C-21.470271 23.03260742 -21.470271 23.03260742 -21.43994141 25.36132812 C-21.36310012 31.07941521 -21.27451276 36.79727342 -21.18261719 42.51513672 C-21.14464836 44.97635333 -21.10974355 47.4376194 -21.078125 49.89892578 C-20.90382647 63.30357196 -20.6737499 76.49804411 -18.5 89.75 C-16.85 89.75 -15.2 89.75 -13.5 89.75 C-12.06475632 86.31411361 -10.91102826 82.90588965 -9.9375 79.3125 C-9.56431641 77.95318359 -9.56431641 77.95318359 -9.18359375 76.56640625 C-7.70813277 70.48750702 -7.28391624 64.59557467 -7.0703125 58.37109375 C-6.99670114 56.54489729 -6.92246349 54.71872599 -6.84765625 52.89257812 C-6.73400927 50.03344649 -6.62454758 47.17438749 -6.52587891 44.31469727 C-6.42826162 41.54117575 -6.31316712 38.76881932 -6.1953125 35.99609375 C-6.17018585 35.14389755 -6.1450592 34.29170135 -6.11917114 33.41368103 C-5.90800724 28.79007496 -5.56973887 25.45565894 -2.5 21.75 C2.56280501 20.06239833 7.54855718 19.93689882 12.5 22 C14.8682985 24.07226119 14.99392211 24.70403775 15.5 27.75 C15.62675744 30.19600852 15.70163657 32.64486276 15.74609375 35.09375 C15.77748314 36.57390067 15.80923532 38.05404368 15.84130859 39.53417969 C15.85667664 40.30515991 15.87204468 41.07614014 15.88787842 41.8704834 C16.22573942 58.20619297 16.22573942 58.20619297 17.375 74.5 C17.44130615 75.25861328 17.5076123 76.01722656 17.57592773 76.79882812 C18.0998979 81.66162911 19.21025848 85.47252125 21.5 89.75 C24.58369887 90.80749557 24.58369887 90.80749557 27.5 90.75 C31.05422233 83.40460719 30.65758386 74.87937213 30.66796875 66.88671875 C30.67129715 65.97348343 30.67462555 65.06024811 30.67805481 64.11933899 C30.68308579 62.19911192 30.68546433 60.27887623 30.68530273 58.35864258 C30.68748628 55.45574205 30.70567518 52.55322402 30.72460938 49.65039062 C31.62700957 31.49098899 31.62700957 31.49098899 24.5 15.75 C16.63023182 10.45205149 8.12714667 10.58771343 -1.04296875 10.546875 C-2.04781815 10.54117493 -3.05266754 10.53547485 -4.08796692 10.52960205 C-6.20845499 10.52018821 -8.32895745 10.51363251 -10.44946289 10.50976562 C-13.65993384 10.50008314 -16.86975769 10.46903411 -20.08007812 10.4375 C-37.09120323 9.8640872 -37.09120323 9.8640872 -52.5625 15.875 C-60.07699218 27.02553678 -58.66426351 41.75965733 -58.625 54.625 C-58.62886719 55.88441406 -58.63273438 57.14382812 -58.63671875 58.44140625 C-58.88527136 74.84609966 -58.88527136 74.84609966 -55.5 90.75 C-53.85 90.75 -52.2 90.75 -50.5 90.75 C-47.97484591 82.50116332 -46.56143984 74.30395637 -45.5 65.75 C-44.84 66.08 -44.18 66.41 -43.5 66.75 C-43.42581954 71.10990873 -43.37138456 75.46948279 -43.33520508 79.82983398 C-43.32012232 81.31297199 -43.29965311 82.79606544 -43.27368164 84.27905273 C-43.23727384 86.41140745 -43.22026927 88.54317235 -43.20703125 90.67578125 C-43.1913208 91.95880127 -43.17561035 93.24182129 -43.15942383 94.5637207 C-43.5 97.75 -43.5 97.75 -44.75688171 99.43083191 C-46.9246052 101.07133541 -48.0368716 101.10027933 -50.73046875 101.04296875 C-51.53291016 101.03330078 -52.33535156 101.02363281 -53.16210938 101.01367188 C-53.99548828 100.98853516 -54.82886719 100.96339844 -55.6875 100.9375 C-56.9549707 100.91719727 -56.9549707 100.91719727 -58.24804688 100.89648438 C-60.33230384 100.86115799 -62.41623277 100.80735139 -64.5 100.75 C-64.54682408 92.58594002 -64.58211871 84.42193832 -64.60362434 76.25777626 C-64.6139581 72.46477054 -64.62792078 68.67185823 -64.65087891 64.87890625 C-64.93187425 17.08375065 -64.93187425 17.08375065 -58.02734375 7.76171875 C-49.70837693 0.83265302 -40.03177042 0.23847326 -29.5625 0 C-28.35335937 -0.03383789 -27.14421875 -0.06767578 -25.8984375 -0.10253906 C-17.26042929 -0.29722992 -8.63614324 -0.25430696 0 0 Z " fill="#60CCF0" transform="translate(901.5,0.25)"/>
<path d="M0 0 C1.14130371 0.02610352 2.28260742 0.05220703 3.45849609 0.07910156 C12.77643461 0.42730759 22.74133537 1.19253343 29.69921875 8.05078125 C39.31814995 20.03999349 36.37353857 43.12345721 36.32324219 57.42407227 C36.31247019 61.07259542 36.32321725 64.72063188 36.3359375 68.36914062 C36.33461659 70.72135524 36.33205561 73.07356955 36.328125 75.42578125 C36.33217346 76.49999832 36.33622192 77.57421539 36.34039307 78.6809845 C36.23068329 96.58181671 36.23068329 96.58181671 32.0625 100.75 C28.91015625 101.05078125 28.91015625 101.05078125 25.125 101.0625 C23.87847656 101.07925781 22.63195312 101.09601563 21.34765625 101.11328125 C18.0625 100.75 18.0625 100.75 16.19140625 99.50390625 C10.59075965 90.80255566 12.40615801 75.78174067 12.0625 65.75 C11.43118164 65.76160156 10.79986328 65.77320312 10.14941406 65.78515625 C0.01508423 65.88337752 -10.07257481 65.29874344 -20.1875 64.75 C-22.01170351 64.65335775 -23.83592219 64.55700141 -25.66015625 64.4609375 C-30.08611917 64.22725175 -34.51185924 63.98970627 -38.9375 63.75 C-38.92702637 64.66289795 -38.91655273 65.5757959 -38.90576172 66.51635742 C-38.87158719 69.91758775 -38.84655616 73.31863442 -38.82763672 76.7199707 C-38.81760648 78.18940112 -38.80397899 79.65881171 -38.78662109 81.12817383 C-38.76224102 83.24565537 -38.75098714 85.36287199 -38.7421875 87.48046875 C-38.73171387 88.75301514 -38.72124023 90.02556152 -38.71044922 91.33666992 C-38.94261636 94.82691589 -39.36131087 98.17381087 -41.9375 100.75 C-48.64142994 101.15702432 -55.30232822 100.7131701 -61.9375 99.75 C-66.65616725 95.03133275 -64.3154382 75.8187264 -64.5 68.75 C-64.52051422 67.98330994 -64.54102844 67.21661987 -64.56216431 66.42669678 C-64.70053804 61.20140555 -64.82447851 55.9758982 -64.9375 50.75 C-64.96231445 49.61079102 -64.98712891 48.47158203 -65.01269531 47.29785156 C-65.57121137 17.82902995 -65.57121137 17.82902995 -57.25 8.94921875 C-49.26156167 1.17015481 -39.84094398 0.26877671 -29.0625 0 C-27.39465454 -0.05075684 -27.39465454 -0.05075684 -25.69311523 -0.10253906 C-17.12409328 -0.31044673 -8.56754736 -0.24043632 0 0 Z M-55.31640625 14.9453125 C-60.55709245 20.7795222 -60.38630892 28.24449151 -60.25 35.625 C-60.2387207 36.63369141 -60.22744141 37.64238281 -60.21582031 38.68164062 C-59.94164203 53.91056094 -59.57983624 72.62645238 -50.9375 85.75 C-49.4525 85.255 -49.4525 85.255 -47.9375 84.75 C-44.93931193 78.50377485 -43.97117149 71.92778256 -42.87890625 65.140625 C-41.83502917 61.38093495 -41.11722039 59.97313224 -37.9375 57.75 C-23.54700416 53.91735538 -6.11796209 54.25784416 8.0625 58.75 C11.3046875 60.671875 11.3046875 60.671875 14.0625 62.75 C14.64128906 63.16636719 15.22007812 63.58273438 15.81640625 64.01171875 C18.21466773 67.35725592 18.61834707 71.7055788 19.43554688 75.68164062 C20.4957273 80.42361916 21.98729071 83.86269661 25.0625 87.75 C27.18369128 88.70231597 27.18369128 88.70231597 29.0625 88.75 C34.65335048 71.97744857 31.65705528 49.22773331 30.25 31.875 C30.17998779 30.94969482 30.10997559 30.02438965 30.0378418 29.07104492 C29.54125421 23.74621986 28.7992099 19.39231484 26.0625 14.75 C14.82642146 8.02580777 -0.68558857 9.43087172 -13.35424805 9.48925781 C-16.13156755 9.50002546 -18.90824625 9.48927438 -21.68554688 9.4765625 C-39.14230796 9.19585354 -39.14230796 9.19585354 -55.31640625 14.9453125 Z " fill="#60CCF0" transform="translate(168.9375,0.25)"/>
<path d="M0 0 C2 2 2 2 2.3125 5 C2.209375 5.99 2.10625 6.98 2 8 C-1.31371 10.20914 -2.3446021 10.22481553 -6.1875 10.125 C-7.08855469 10.10695313 -7.98960937 10.08890625 -8.91796875 10.0703125 C-9.60503906 10.04710937 -10.29210937 10.02390625 -11 10 C-12.75001976 13.83158016 -13.34018941 17.08320579 -13.59765625 21.27734375 C-13.71584717 23.1169165 -13.71584717 23.1169165 -13.83642578 24.99365234 C-13.91103027 26.29512207 -13.98563477 27.5965918 -14.0625 28.9375 C-14.14513601 30.28079471 -14.22831072 31.62405638 -14.31201172 32.96728516 C-15.00670229 44.30504397 -15.55166218 55.64997406 -16 67 C-21.05519426 65.52752227 -23.79511894 62.51645203 -27.3125 58.8125 C-28.4668243 57.62572807 -29.62306495 56.44081697 -30.78125 55.2578125 C-31.61269531 54.40751465 -31.61269531 54.40751465 -32.4609375 53.54003906 C-34.91385928 51.08556086 -37.53258359 48.84969318 -40.17578125 46.60546875 C-42.20805506 44.81689372 -44.10057895 42.92881247 -46 41 C-49.8358581 37.11962517 -53.85103739 33.54026152 -58 30 C-58.98097656 29.14148438 -59.96195312 28.28296875 -60.97265625 27.3984375 C-72.47918475 17.04542167 -72.47918475 17.04542167 -86 10 C-87.91463722 19.64754096 -88.6455884 29.19461251 -89 39 C-89.04253906 40.14597656 -89.08507812 41.29195312 -89.12890625 42.47265625 C-89.2759299 51.00982924 -88.71723287 59.48658172 -88.125 68 C-88.00741333 69.75546143 -88.00741333 69.75546143 -87.88745117 71.54638672 C-87.4560898 77.29097876 -86.88678979 82.54575054 -85 88 C-77.9286046 80.9286046 -79.05383712 65.30655461 -78.34326172 55.69165039 C-77.74231517 47.74427011 -76.98631559 40.45749367 -74 33 C-70 33 -70 33 -67.3359375 35.4921875 C-66.33893136 36.61093582 -65.35252987 37.73919439 -64.375 38.875 C-63.3023087 40.07688584 -62.22806999 41.27739227 -61.15234375 42.4765625 C-60.6197998 43.07500977 -60.08725586 43.67345703 -59.53857422 44.29003906 C-53.48518989 51.0177293 -46.97460795 57.0222443 -39.90234375 62.65625 C-37.87521341 64.29323277 -35.8991781 65.94126904 -33.94140625 67.65625 C-18.22010812 81.52690431 -18.22010812 81.52690431 1 89 C1.58203125 91.390625 1.58203125 91.390625 2 94 C-0.24604873 96.99473164 -2.3150444 97.90011064 -6 98.4375 C-20.49709622 97.99189253 -34.7634781 78.3072259 -44.21289062 68.77075195 C-47.71201451 65.24908216 -51.26792447 61.86201209 -55.0625 58.65625 C-58.35986046 55.83753864 -61.51918984 52.86361577 -64.703125 49.91796875 C-66.77361383 48.18904015 -68.58650417 47.14422047 -71 46 C-71.03092239 46.86657478 -71.03092239 46.86657478 -71.06246948 47.75065613 C-71.27901694 53.76951464 -71.50817652 59.78779948 -71.74462891 65.8059082 C-71.83119314 68.05122868 -71.91455286 70.2966751 -71.99462891 72.54223633 C-72.1103615 75.77203304 -72.23765328 79.00119974 -72.3671875 82.23046875 C-72.41732498 83.73386055 -72.41732498 83.73386055 -72.46847534 85.2676239 C-72.528311 86.67852043 -72.528311 86.67852043 -72.58935547 88.11791992 C-72.62044403 88.94176682 -72.65153259 89.76561371 -72.68356323 90.61442566 C-73.04700683 93.35437818 -73.79121107 95.51787711 -75 98 C-77.27440826 99.13720413 -78.53846179 99.13390313 -81.0625 99.125 C-81.77535156 99.12757812 -82.48820312 99.13015625 -83.22265625 99.1328125 C-85.73008337 99.01290741 -88.18044133 98.77504606 -90.67358398 98.49169922 C-91.4838353 98.40008514 -92.29408661 98.30847107 -93.12889099 98.21408081 C-93.74635696 98.14343414 -94.36382294 98.07278748 -95 98 C-95.18948606 50.92291733 -95.18948606 50.92291733 -94.625 29.25 C-94.60962189 28.55522552 -94.59424377 27.86045105 -94.57839966 27.1446228 C-94.15215192 8.60298464 -94.15215192 8.60298464 -92 1 C-88.30583677 -1.46277549 -86.70753569 -1.32513394 -82.44921875 -0.71484375 C-77.76150345 0.6533411 -74.56567476 3.77751416 -71 7 C-70.19949219 7.69351562 -69.39898437 8.38703125 -68.57421875 9.1015625 C-63.36987367 13.72597333 -58.40856869 18.56749091 -53.50390625 23.5078125 C-53.00942993 24.0053302 -52.51495361 24.5028479 -52.00549316 25.01544189 C-49.50733786 27.53136801 -47.01653652 30.05398391 -44.53662109 32.58789062 C-37.54307708 39.69207876 -30.31902975 46.45398017 -22 52 C-21.19688001 46.20286605 -20.77882797 40.49062997 -20.5703125 34.64453125 C-20.49673069 32.87041618 -20.42249261 31.09632822 -20.34765625 29.32226562 C-20.23388561 26.55754057 -20.12430256 23.79290471 -20.02587891 21.02758789 C-19.92828906 18.33672632 -19.8132267 15.64706877 -19.6953125 12.95703125 C-19.65762253 11.72095879 -19.65762253 11.72095879 -19.61917114 10.45991516 C-19.40411339 5.90667541 -19.01697834 2.65060622 -16 -1 C-10.53794556 -2.63861633 -5.31772827 -1.85199905 0 0 Z " fill="#60CCF0" transform="translate(515,2)"/>
<path d="M0 0 C3.50790298 0.01082155 7.01530482 -0.00000944 10.52319336 -0.01269531 C12.78165802 -0.01137518 15.04012237 -0.00881581 17.29858398 -0.00488281 C18.33310196 -0.00893127 19.36761993 -0.01297974 20.43348694 -0.01715088 C30.04923033 0.04456212 38.45949577 0.76127834 45.54858398 7.90136719 C48.4117525 11.07499975 50.91541543 14.02052358 51.91967773 18.26074219 C51.54467773 21.07324219 51.54467773 21.07324219 50.91967773 23.26074219 C47.15381663 22.71806351 45.84687146 21.33644119 43.54467773 18.38574219 C38.69461435 12.61726254 34.32586891 11.08935566 26.91967773 10.26074219 C23.54349579 10.11927592 20.17341944 10.11926913 16.79467773 10.13574219 C15.3195874 10.13864258 15.3195874 10.13864258 13.81469727 10.14160156 C4.27279769 10.19493309 -5.25799829 10.52187758 -14.79174805 10.90478516 C-15.94143066 10.95006348 -17.09111328 10.9953418 -18.27563477 11.04199219 C-19.77634521 11.10483398 -19.77634521 11.10483398 -21.30737305 11.16894531 C-26.89821257 11.30497195 -32.48811936 11.2772544 -38.08032227 11.26074219 C-38.10347516 20.85732784 -38.12125243 30.45390389 -38.13213444 40.05051136 C-38.1373568 44.50642189 -38.14444275 48.96231334 -38.15576172 53.41821289 C-38.16661352 57.71702449 -38.17260399 62.01581771 -38.17519951 66.31464195 C-38.17704961 67.95611549 -38.1806623 69.597588 -38.18605232 71.23905373 C-38.19329314 73.53512382 -38.19431191 75.83111762 -38.19384766 78.12719727 C-38.19717857 80.08910759 -38.19717857 80.08910759 -38.20057678 82.09065247 C-38.22754217 85.28581396 -38.22754217 85.28581396 -37.08032227 88.26074219 C-35.59532227 87.76574219 -35.59532227 87.76574219 -34.08032227 87.26074219 C-31.39528578 81.42773189 -30.31991209 75.71296769 -29.45532227 69.38574219 C-29.21601873 67.70043433 -28.97396585 66.01551387 -28.72875977 64.33105469 C-28.62740723 63.5964502 -28.52605469 62.8618457 -28.42163086 62.10498047 C-28.08032227 60.26074219 -28.08032227 60.26074219 -27.08032227 58.26074219 C-14.25200374 54.76111565 -0.66547869 54.1392757 12.52709961 53.03125 C28.40234236 52.62381568 28.40234236 52.62381568 42.10327148 46.17480469 C42.51706055 45.41941406 42.93084961 44.66402344 43.35717773 43.88574219 C43.8122168 43.09554687 44.26725586 42.30535156 44.73608398 41.49121094 C45.12666992 40.75515625 45.51725586 40.01910156 45.91967773 39.26074219 C46.53842773 38.25011719 47.15717773 37.23949219 47.79467773 36.19824219 C48.35155273 35.23917969 48.35155273 35.23917969 48.91967773 34.26074219 C50.40467773 34.75574219 50.40467773 34.75574219 51.91967773 35.26074219 C52.32861517 41.94005367 52.13485799 47.54542278 47.51342773 52.88574219 C34.19640679 65.4489695 13.4973255 63.54232816 -3.45532227 63.38574219 C-5.36677587 63.37568532 -7.27823464 63.36656429 -9.18969727 63.35839844 C-13.82003575 63.33661548 -18.4501202 63.30223717 -23.08032227 63.26074219 C-23.06984863 64.06705078 -23.059375 64.87335938 -23.04858398 65.70410156 C-23.0067753 69.38961619 -22.98091714 73.07508073 -22.95532227 76.76074219 C-22.93856445 78.02917969 -22.92180664 79.29761719 -22.90454102 80.60449219 C-22.87048088 87.14403778 -22.88480239 93.05801472 -25.08032227 99.26074219 C-28.05004715 100.74560463 -30.54356208 100.14230364 -33.83032227 99.88574219 C-35.04204102 99.79550781 -36.25375977 99.70527344 -37.50219727 99.61230469 C-40.73241933 99.29492479 -43.88768821 98.83855019 -47.08032227 98.26074219 C-48.11871712 90.29389765 -48.41892572 82.34916073 -48.64282227 74.32324219 C-48.66366882 73.60573792 -48.68451538 72.88823364 -48.70599365 72.14898682 C-49.07954291 58.97894414 -49.18792161 45.81062648 -49.20532227 32.63574219 C-49.20791046 31.7247879 -49.21049866 30.81383362 -49.21316528 29.87527466 C-49.21904376 27.26153687 -49.21743485 24.64791852 -49.21313477 22.03417969 C-49.21511368 21.26463455 -49.21709259 20.49508942 -49.21913147 19.70222473 C-49.21000355 17.55239974 -49.15081575 15.40932601 -49.08032227 13.26074219 C-49.08513611 12.52913879 -49.08994995 11.7975354 -49.09490967 11.04376221 C-49.00952148 8.89990234 -49.00952148 8.89990234 -48.08032227 5.26074219 C-43.45993577 2.36699643 -38.69755672 1.62315884 -33.30297852 1.08886719 C-32.53913345 1.00928772 -31.77528839 0.92970825 -30.98829651 0.84771729 C-20.68419731 -0.10539336 -10.33892234 -0.03800806 0 0 Z " fill="#60CCF0" transform="translate(49.080322265625,0.7392578125)"/>
<path d="M0 0 C3.68623011 1.61272567 4.75355 2.630325 7 6 C9.44520219 17.73716185 9.31246617 29.79987071 9.26074219 41.73120117 C9.24987685 44.72139104 9.26077656 47.71099845 9.2734375 50.70117188 C9.27211813 52.61718882 9.26956036 54.5332054 9.265625 56.44921875 C9.26967346 57.33566574 9.27372192 58.22211273 9.27789307 59.13542175 C9.24442945 63.53521848 9.06766287 66.99865142 7 71 C5.515 70.505 5.515 70.505 4 70 C-0.36974224 59.4438811 0.76555618 45.51586248 0.39453125 34.31640625 C0.08996771 25.82013362 -0.21991978 17.33435051 -2 9 C-4.55790681 9.87887015 -4.55790681 9.87887015 -7 12 C-11.50102744 22.5892593 -10.18663659 36.72901816 -10.18530273 47.9934082 C-10.18750177 50.06417045 -10.20578733 52.13440838 -10.22460938 54.20507812 C-10.56716527 70.5888172 -10.56716527 70.5888172 -4 85 C5.07570484 90.24588613 15.08341202 90.15317914 25.26171875 90.1328125 C26.32936966 90.13376923 27.39702057 90.13472595 28.49702454 90.13571167 C30.74858662 90.13638959 33.0001507 90.13456244 35.25170898 90.13037109 C38.65938831 90.12504395 42.06693425 90.13031566 45.47460938 90.13671875 C61.26234789 90.14564166 61.26234789 90.14564166 77 89 C77 88.34 77 87.68 77 87 C63.50741611 85.18260905 50.08537099 84.42191667 36.48852539 83.89550781 C26.52823181 83.50132718 16.78983674 83.05655207 7 81 C7 79.68 7 78.36 7 77 C14.3999764 75.47410227 21.57718216 74.6109078 29.125 74.375 C30.19089355 74.33705322 31.25678711 74.29910645 32.35498047 74.26000977 C49.89393888 73.72354974 67.45549989 73.92342362 85 74 C85 82.58 85 91.16 85 100 C74.98550748 100.06794093 64.97116956 100.12291112 54.95649815 100.15543652 C50.30562802 100.17105184 45.6549246 100.19221412 41.00415039 100.22631836 C36.51078097 100.25905987 32.01757128 100.27688406 27.52409172 100.28463173 C25.81498642 100.2901488 24.10588927 100.30092197 22.39685249 100.31719017 C10.58272246 100.42511345 0.74674034 100.43798629 -8.27734375 91.80859375 C-17.15103631 82.49222265 -16.34618907 70.25084868 -16.25 58.0625 C-16.24689819 57.36532867 -16.24379639 56.66815735 -16.24060059 55.94985962 C-16.18342251 44.8238537 -15.88365743 33.70385816 -15.36120605 22.59005737 C-15.28737835 20.9950426 -15.21937553 19.399747 -15.15734863 17.80422974 C-15.06715317 15.56983949 -14.95148869 13.33824303 -14.828125 11.10546875 C-14.7652832 9.82824951 -14.70244141 8.55103027 -14.63769531 7.23510742 C-13.02565889 -0.94295333 -7.03999742 -0.95844373 0 0 Z " fill="#60CCF0" transform="translate(224,1)"/>
<path d="M0 0 C1.40102463 -0.00855011 1.40102463 -0.00855011 2.83035278 -0.01727295 C4.79167574 -0.02664973 6.75301394 -0.03322745 8.71435547 -0.03710938 C11.68094797 -0.04682794 14.64685021 -0.077927 17.61328125 -0.109375 C44.14049903 -0.25726523 44.14049903 -0.25726523 54.0078125 9.328125 C59.5231973 18.07666641 59.97331199 28.7628246 59.98828125 38.83984375 C59.99327385 40.04179131 59.99327385 40.04179131 59.99836731 41.26802063 C60.0033991 42.95463493 60.0057768 44.64125906 60.00561523 46.32788086 C60.00779186 48.86654687 60.02596064 51.40477051 60.04492188 53.94335938 C60.14556177 83.1153689 60.14556177 83.1153689 53.12890625 91.13671875 C43.59977019 100.10641434 32.77494407 100.35788419 20.296875 100.37109375 C19.1961264 100.37442215 18.09537781 100.37775055 16.96127319 100.38117981 C14.63987646 100.38622735 12.31847252 100.38858881 9.99707031 100.38842773 C6.46407001 100.3906134 2.93138262 100.40879031 -0.6015625 100.42773438 C-2.86458227 100.43066899 -5.12760352 100.43265333 -7.390625 100.43359375 C-8.43777679 100.44077927 -9.48492859 100.44796478 -10.56381226 100.45536804 C-19.34238211 100.42829967 -27.14961349 99.92527826 -34.1796875 94.203125 C-41.81076739 86.36007067 -41.33458936 74.58967208 -41.34765625 64.2890625 C-41.35098465 63.35695953 -41.35431305 62.42485657 -41.35774231 61.46450806 C-41.36278112 59.49961842 -41.36515158 57.53472031 -41.36499023 55.56982422 C-41.36716585 52.60759879 -41.38532447 49.64575295 -41.40429688 46.68359375 C-41.49416793 16.51053559 -41.49416793 16.51053559 -34.1796875 6.453125 C-24.9156977 -0.49486735 -11.11604523 0.05410266 0 0 Z M-31.1796875 15.203125 C-37.55961181 24.11811858 -36.51027387 36.95727558 -36.4296875 47.453125 C-36.42364502 48.71785645 -36.41760254 49.98258789 -36.41137695 51.28564453 C-36.58948459 69.33385709 -36.58948459 69.33385709 -31.1796875 86.203125 C-20.37925233 92.7293454 -5.44193856 91.52546783 6.79052734 91.46386719 C9.31762672 91.4531364 11.84401557 91.46383656 14.37109375 91.4765625 C32.78362907 91.92040055 32.78362907 91.92040055 49.8203125 86.203125 C58.81829253 69.88574689 57.42118165 39.74393862 52.8203125 22.203125 C51.42904724 18.303569 49.72970042 15.86243124 46.3203125 13.390625 C27.0254547 6.84415539 -13.49549763 2.82419209 -31.1796875 15.203125 Z " fill="#60CCF0" transform="translate(774.1796875,0.796875)"/>
<path d="M0 0 C-0.22544931 3.35064323 -1.1824346 4.16520902 -3.73046875 6.47265625 C-4.87482202 7.34650191 -6.02754211 8.20947694 -7.1875 9.0625 C-7.75275391 9.49626953 -8.31800781 9.93003906 -8.90039062 10.37695312 C-14.77885476 14.80095191 -19.41812366 17.45491258 -27 17 C-24.01722304 22.46842444 -20.94150663 25.03863308 -15 27 C-11.88256864 27.58871644 -8.78873423 28.0509637 -5.63671875 28.41015625 C-2.71409125 29.06395885 -1.72299205 29.58558072 0 32 C2.0959817 37.74274754 1.53071077 44.80134111 0.125 50.625 C-1 53 -1 53 -3 54 C-17.78293591 55.22931783 -27.18871251 53.04896623 -38.71313477 43.33325195 C-42.7416538 39.84771373 -46.65698159 36.24285417 -50.56640625 32.625 C-56.55886863 27.13637614 -63.19910284 21.60029905 -71 19 C-72.84900888 25.55354356 -73.37192291 31.5986366 -73.56640625 38.37695312 C-74.02474538 50.02474538 -74.02474538 50.02474538 -78 54 C-80.54535141 54.19849071 -82.95716759 54.27851775 -85.5 54.25 C-86.18964844 54.25773437 -86.87929688 54.26546875 -87.58984375 54.2734375 C-92.74666707 54.25333293 -92.74666707 54.25333293 -95 52 C-97.69355729 44.58419352 -96.45590781 34.64351598 -95 27 C-94.34 27 -93.68 27 -93 27 C-92.81824219 27.89203125 -92.63648438 28.7840625 -92.44921875 29.703125 C-92.19785156 30.87359375 -91.94648437 32.0440625 -91.6875 33.25 C-91.32205078 34.99023438 -91.32205078 34.99023438 -90.94921875 36.765625 C-90.04294167 39.85368022 -89.1073297 41.61523474 -87 44 C-83.9718533 43.3651577 -83.9718533 43.3651577 -83.12109375 41.42578125 C-81.18891753 35.45259648 -80.29721354 29.57101315 -79.625 23.33203125 C-78.77341856 18.79203768 -77.28124053 15.28124053 -74 12 C-66.68467734 10.95495391 -62.74837735 12.73562632 -56.7421875 16.88671875 C-53.22814044 19.59483764 -49.97857096 22.51668978 -46.7265625 25.53125 C-31.46696777 39.64184715 -31.46696777 39.64184715 -11.97265625 44.2734375 C-9.92987118 43.99027917 -7.98846756 43.54271374 -6 43 C-6.47569183 40.54035112 -6.47569183 40.54035112 -8 38 C-10.46458408 36.7736041 -12.66322256 35.85398411 -15.25 35 C-23.14528949 32.33204363 -28.36306678 28.6344748 -32.9375 21.4375 C-33.84822266 20.04337891 -33.84822266 20.04337891 -34.77734375 18.62109375 C-36 16 -36 16 -35.69140625 13.66015625 C-35.46324219 13.11230469 -35.23507812 12.56445312 -35 12 C-34.030625 11.8040625 -33.06125 11.608125 -32.0625 11.40625 C-23.42619961 9.52449478 -15.92728799 6.85836656 -8.14257812 2.64257812 C-3.2520602 0 -3.2520602 0 0 0 Z " fill="#60CCF0" transform="translate(725,47)"/>
<path d="M0 0 C0.92635254 0.03456299 1.85270508 0.06912598 2.80712891 0.10473633 C9.70507478 0.4414467 16.52886177 1.01074857 22.75 4.1875 C28.43921857 11.08352251 27.12424394 22.08246882 27.07324219 30.56445312 C27.06251829 32.68388469 27.07319362 34.80246899 27.0859375 36.921875 C27.10826993 57.28071185 27.10826993 57.28071185 20.8125 64.6875 C8.05308183 73.61909272 -20.45930936 66.81777853 -35.1875 65.6875 C-35.93842548 53.7799674 -36.31337691 41.88269793 -36.36474609 29.95288086 C-36.37154314 28.53407754 -36.38175735 27.11528618 -36.39550781 25.6965332 C-36.41356037 23.67535972 -36.4159881 21.65406563 -36.41796875 19.6328125 C-36.42207764 18.46250488 -36.42618652 17.29219727 -36.43041992 16.08642578 C-36.12158485 11.76521791 -35.37340246 7.59812063 -33.0625 3.875 C-23.93189979 -1.90771346 -10.2842217 -0.41530787 0 0 Z M-32.1875 8.6875 C-32.1875 24.8575 -32.1875 41.0275 -32.1875 57.6875 C-14.3675 57.6875 3.4525 57.6875 21.8125 57.6875 C21.8125 41.5175 21.8125 25.3475 21.8125 8.6875 C3.9925 8.6875 -13.8275 8.6875 -32.1875 8.6875 Z " fill="#60CCF0" transform="translate(578.1875,17.3125)"/>
<path d="M0 0 C0.99479339 8.4599951 1.35684819 16.91320574 1.61254883 25.42114258 C1.68703173 27.79755959 1.77799883 30.17299972 1.86914062 32.54882812 C2.65070542 55.75661619 2.65070542 55.75661619 -1.8605957 61.27661133 C-11.43282536 68.98748308 -32.09479156 66.74551761 -43.44140625 65.5859375 C-54.33668469 64.33165765 -54.33668469 64.33165765 -57 63 C-56.67 61.68 -56.34 60.36 -56 59 C-50.70026132 57.54979342 -45.68798388 56.62255409 -40.1875 56.375 C-39.07785889 56.31807983 -39.07785889 56.31807983 -37.94580078 56.26000977 C-26.309079 55.74362877 -14.64465657 55.91573116 -3 56 C-3.09435185 50.91343828 -3.20061507 45.82730754 -3.31738281 40.74121094 C-3.3553985 39.01504116 -3.39029635 37.28879953 -3.421875 35.5625 C-2.59931445 20.90801946 -2.59931445 20.90801946 -7 8 C-8.36479645 7.88322245 -9.73537823 7.83281945 -11.10498047 7.81054688 C-11.97613495 7.79382935 -12.84728943 7.77711182 -13.74484253 7.7598877 C-14.69271637 7.74631226 -15.64059021 7.73273682 -16.6171875 7.71875 C-17.58528351 7.70034058 -18.55337952 7.68193115 -19.55081177 7.66296387 C-22.6588107 7.60401242 -25.76686589 7.55129884 -28.875 7.5 C-32.95584754 7.43241748 -37.03651661 7.35869543 -41.1171875 7.28125 C-42.06101288 7.26767456 -43.00483826 7.25409912 -43.9772644 7.2401123 C-44.85472321 7.22339478 -45.73218201 7.20667725 -46.63623047 7.18945312 C-47.4082077 7.17692505 -48.18018494 7.16439697 -48.97555542 7.15148926 C-51 7 -51 7 -54 6 C-53.67 5.01 -53.34 4.02 -53 3 C-37.34041882 -4.4027111 -16.70768773 -0.99747389 0 0 Z " fill="#60CCF0" transform="translate(811,19)"/>
<path d="M0 0 C2.58571005 2.26249629 3.76273214 3.75942804 4.41015625 7.14453125 C4.66979079 11.15888068 4.33185061 13.44296505 2.25 16.9375 C-6.53473273 22.51242654 -18.80593241 21.3143275 -28.90161133 21.26074219 C-31.32593338 21.24994014 -33.74952727 21.26073843 -36.17382812 21.2734375 C-37.73698078 21.27211702 -39.30013298 21.26955695 -40.86328125 21.265625 C-41.57696365 21.26967346 -42.29064606 21.27372192 -43.0259552 21.27789307 C-48.30059806 21.22909817 -53.28037016 20.63177791 -57.875 17.875 C-60.4581228 13.56979533 -60.15267978 9.01786521 -59.4375 4.25 C-57.71781425 0.36201483 -55.77964077 -1.28408368 -52 -3 C-48.4477869 -3.88941351 -44.88440857 -4.33253415 -41.25 -4.75 C-40.3115625 -4.87503906 -39.373125 -5.00007813 -38.40625 -5.12890625 C-25.7638729 -6.71793431 -10.98849392 -7.55458957 0 0 Z M-39.5 3.3125 C-40.28189697 3.34714355 -41.06379395 3.38178711 -41.86938477 3.41748047 C-45.94447419 3.66169064 -49.31559936 4.20897191 -53 6 C-53 6.99 -53 7.98 -53 9 C-42.97472816 13.90124401 -32.60154529 14.35217143 -21.57250977 14.31567383 C-19.54065525 14.31246551 -17.5101963 14.33623963 -15.47851562 14.36132812 C-14.18751953 14.36197266 -12.89652344 14.36261719 -11.56640625 14.36328125 C-10.40052979 14.36626221 -9.23465332 14.36924316 -8.03344727 14.37231445 C-4.75282939 13.96966316 -3.38955152 13.22073049 -1 11 C-1.57344937 8.13275314 -1.8614515 7.1385485 -4 5 C-14.72060488 1.51534491 -28.383673 2.77205462 -39.5 3.3125 Z " fill="#60CCF0" transform="translate(705,23)"/>
<path d="M0 0 C2.9943149 3.54881766 2.79798764 6.7246494 2.75 11.1875 C2.74097656 12.27417969 2.73195313 13.36085938 2.72265625 14.48046875 C2.71105469 15.31191406 2.69945312 16.14335937 2.6875 17 C-0.3125 16 -0.3125 16 -1.3046875 14.29296875 C-1.59601563 13.59816406 -1.88734375 12.90335938 -2.1875 12.1875 C-4.05358996 8.32400263 -5.42415037 6.10618938 -9.3125 4 C-18.92757097 1.44490162 -28.88142554 1.6925909 -38.74609375 1.73925781 C-41.41169428 1.749897 -44.07660847 1.73935413 -46.7421875 1.7265625 C-55.26886418 1.71907033 -63.6985255 1.96997001 -72.1796875 2.890625 C-72.89899445 2.96810974 -73.61830139 3.04559448 -74.35940552 3.12542725 C-82.53445681 3.94779907 -82.53445681 3.94779907 -89.3125 8 C-90.6325 8 -91.9525 8 -93.3125 8 C-93.39357583 6.06318839 -93.45172475 4.1254066 -93.5 2.1875 C-93.53480469 1.10855469 -93.56960938 0.02960937 -93.60546875 -1.08203125 C-93.3125 -4 -93.3125 -4 -92.05078125 -5.82421875 C-86.41776767 -9.63441446 -78.0111544 -8.4320194 -71.4375 -8.625 C-70.34553314 -8.65768982 -70.34553314 -8.65768982 -69.23150635 -8.69104004 C-11.94127689 -10.32759082 -11.94127689 -10.32759082 0 0 Z " fill="#60CCF0" transform="translate(618.3125,9)"/>
<path d="M0 0 C1.27907227 0.02626465 2.55814453 0.0525293 3.87597656 0.07958984 C27.4010337 0.85883041 27.4010337 0.85883041 35.3203125 8.9140625 C37.35628688 11.41905716 38.78925299 13.68025896 39.8125 16.75 C39.5 19.125 39.5 19.125 38.8125 20.75 C35.68393779 20.40238198 34.75124303 19.68708744 32.5 17.375 C24.68129898 9.73812924 13.56784472 10.59304837 3.3671875 10.58203125 C1.73597458 10.57703865 1.73597458 10.57703865 0.07180786 10.57194519 C-2.22263163 10.56690077 -4.5170784 10.56453609 -6.81152344 10.56469727 C-10.28072549 10.56251994 -13.74960446 10.54436251 -17.21875 10.52539062 C-36.72138787 9.35687294 -36.72138787 9.35687294 -54.1875 15.75 C-54.8475 15.75 -55.5075 15.75 -56.1875 15.75 C-57.35093227 13.42313547 -57.38645988 11.90278587 -57.4375 9.3125 C-57.47617187 8.13880859 -57.47617187 8.13880859 -57.515625 6.94140625 C-57.1875 4.75 -57.1875 4.75 -55.921875 3.02734375 C-50.46678092 -0.99025932 -41.89686918 0.31558738 -35.4375 0.125 C-34.71307709 0.10320679 -33.98865417 0.08141357 -33.24227905 0.05895996 C-22.15364844 -0.25879979 -11.08919149 -0.28866658 0 0 Z " fill="#60CCF0" transform="translate(686.1875,0.25)"/>
<path d="M0 0 C0.97176178 -0.00945648 1.94352356 -0.01891296 2.94473267 -0.02865601 C3.99470428 -0.02258331 5.0446759 -0.01651062 6.12646484 -0.01025391 C7.21067719 -0.01312408 8.29488953 -0.01599426 9.41195679 -0.01895142 C11.71019003 -0.02099477 14.00844056 -0.01544607 16.30664062 -0.00292969 C19.80297497 0.01302648 23.29813681 -0.00272155 26.79443359 -0.02197266 C29.03011321 -0.01998845 31.2657921 -0.01614112 33.50146484 -0.01025391 C34.53929108 -0.0163266 35.57711731 -0.02239929 36.64639282 -0.02865601 C43.03026308 0.0322812 48.30053621 0.94967351 54.21240234 3.38818359 C54.21240234 4.37818359 54.21240234 5.36818359 54.21240234 6.38818359 C47.27877251 8.03954375 40.82994768 8.64415749 33.71630859 8.51318359 C32.76094711 8.50561035 31.80558563 8.49803711 30.8212738 8.49023438 C27.80562207 8.46603793 24.79037544 8.42874725 21.77490234 8.38818359 C17.77621574 8.3350491 13.77771419 8.29510709 9.77880859 8.26318359 C8.86321671 8.24658691 7.94762482 8.22999023 7.00428772 8.21289062 C5.73167336 8.20298096 5.73167336 8.20298096 4.43334961 8.19287109 C3.31610252 8.17716064 3.31610252 8.17716064 2.17628479 8.16113281 C-0.11039101 8.2744284 -0.11039101 8.2744284 -2.78759766 10.38818359 C-3.03790743 12.97198537 -3.03790743 12.97198537 -2.78759766 15.38818359 C0.25975702 17.15195926 2.42633831 17.63137586 5.93334961 17.59936523 C7.32983482 17.5942971 7.32983482 17.5942971 8.75453186 17.58912659 C10.25154884 17.56893715 10.25154884 17.56893715 11.77880859 17.54833984 C13.32446754 17.54053749 13.32446754 17.54053749 14.90135193 17.53257751 C18.1926789 17.51476786 21.4836944 17.48359327 24.77490234 17.45068359 C28.06965036 17.4230733 31.36435444 17.39836521 34.65916443 17.37950134 C36.70922309 17.36723803 38.75925804 17.34962842 40.80921936 17.32618713 C41.73705734 17.31965622 42.66489532 17.31312531 43.62084961 17.30639648 C44.43707291 17.29814346 45.2532962 17.28989044 46.09425354 17.28138733 C48.21240234 17.38818359 48.21240234 17.38818359 51.21240234 18.38818359 C50.71740234 19.87318359 50.71740234 19.87318359 50.21240234 21.38818359 C43.44373265 24.28904204 36.24109901 24.54857502 28.97021484 24.59130859 C27.81850296 24.5998587 27.81850296 24.5998587 26.64352417 24.60858154 C25.02831374 24.61797337 23.41308465 24.62454218 21.79785156 24.62841797 C19.35105459 24.63812941 16.90509684 24.66920973 14.45849609 24.70068359 C-0.96950344 24.8087348 -0.96950344 24.8087348 -7.78759766 21.38818359 C-10.51147393 16.10129741 -9.90954601 10.96106284 -8.58837891 5.33349609 C-6.80230058 0.99463266 -4.55713734 0.01272988 0 0 Z " fill="#60CCF0" transform="translate(29.78759765625,19.61181640625)"/>
<path d="M0 0 C1.9375 0.625 1.9375 0.625 4 2 C5.10556363 5.31669088 5.22241947 7.28141402 4.1875 10.625 C-2.38814279 17.76426931 -14.27354563 18.68848169 -23.49017334 19.11532593 C-29.36907174 19.2787508 -35.24668065 19.28476415 -41.12744141 19.26074219 C-44.22969326 19.25006986 -47.33136 19.26066099 -50.43359375 19.2734375 C-79.28590374 19.29531887 -79.28590374 19.29531887 -91 15 C-91 14.01 -91 13.02 -91 12 C-82.8810063 9.91620008 -75.12468417 9.76645569 -66.77734375 9.875 C-65.42314871 9.88383685 -64.06894528 9.89146306 -62.71473694 9.89794922 C-58.45553531 9.92059394 -54.1965601 9.95907412 -49.9375 10 C-44.99161309 10.04748275 -40.04585726 10.08816571 -35.09979439 10.11187744 C-33.13847388 10.1246825 -31.17724623 10.149831 -29.21604919 10.17529297 C-18.82021156 10.23213136 -10.02773222 9.80427745 -2.1875 2.3125 C-1.465625 1.549375 -0.74375 0.78625 0 0 Z " fill="#60CCF0" transform="translate(617,81)"/>
<path d="M0 0 C1.9375 1.375 1.9375 1.375 3 3 C2.57894737 7.42105263 2.57894737 7.42105263 1 9 C-0.99958364 9.04080783 -3.00045254 9.04254356 -5 9 C-5.495 7.515 -5.495 7.515 -6 6 C-13.33919471 2.99145068 -21.57835186 3.29633347 -29.39648438 2.87695312 C-35.85623013 2.46272333 -41.08323113 1.66436095 -47 -1 C-46.25 -2.9375 -46.25 -2.9375 -45 -5 C-31.80883214 -9.52248135 -11.91759989 -6.43414581 0 0 Z " fill="#60CCF0" transform="translate(184,24)"/>
<path d="M0 0 C0.99 0.33 1.98 0.66 3 1 C3.91297308 5.97063121 3.91297308 10.02936879 3 15 C7.12515723 15.76337429 11.0972392 16.16204522 15.2890625 16.28125 C16.47886719 16.31863281 17.66867188 16.35601562 18.89453125 16.39453125 C20.12558594 16.42933594 21.35664063 16.46414062 22.625 16.5 C31.44849002 16.75425211 40.21064948 17.16581147 49 18 C49.495 19.485 49.495 19.485 50 21 C45.45324244 22.75340732 41.66298222 23.25677371 36.80078125 23.265625 C36.12508591 23.26753845 35.44939056 23.2694519 34.7532196 23.27142334 C33.32872137 23.27277771 31.90421049 23.26913379 30.47973633 23.26074219 C28.33580654 23.25011552 26.19273074 23.26061895 24.04882812 23.2734375 C4.55889477 23.29943274 4.55889477 23.29943274 -1.66015625 19.28125 C-3.4572646 16.22145036 -3.49828516 14.0336442 -3.4375 10.5 C-3.43621094 9.3759375 -3.43492188 8.251875 -3.43359375 7.09375 C-2.97227402 3.80217137 -2.22526734 2.40824689 0 0 Z " fill="#60CCF0" transform="translate(128,21)"/>
<path d="M0 0 C0.99 0.33 1.98 0.66 3 1 C6.28073309 10.32418879 5.25103328 19.50214745 3.625 29.0625 C3.49907471 29.81329834 3.37314941 30.56409668 3.2434082 31.33764648 C2.25007386 36.74992614 2.25007386 36.74992614 0 39 C-1.51914292 35.96171416 -1.1421287 32.80463483 -1.1328125 29.47265625 C-1.13376923 28.72793564 -1.13472595 27.98321503 -1.13571167 27.21592712 C-1.13639257 25.63980017 -1.13454455 24.06367041 -1.13037109 22.48754883 C-1.12502906 20.07561935 -1.1303152 17.66387673 -1.13671875 15.25195312 C-1.1360578 13.72135376 -1.1347763 12.1907545 -1.1328125 10.66015625 C-1.13483673 9.93820572 -1.13686096 9.21625519 -1.13894653 8.47242737 C-1.12445613 5.37395742 -0.98766804 2.96300412 0 0 Z " fill="#60CCF0" transform="translate(518,34)"/>
<path d="M0 0 C4.97857466 4.97857466 3.24724749 16.43692021 3.2512207 23.20410156 C3.15787032 28.41418081 2.85525261 33.50520781 0 38 C-2.6875 39.5625 -2.6875 39.5625 -5 40 C-4.59118209 36.93386567 -4.18348463 33.88981927 -3.55859375 30.859375 C-1.4763911 20.69429121 -0.84987574 10.32558028 0 0 Z " fill="#60CCF0" transform="translate(751,32)"/>
<path d="M0 0 C1.65 0.33 3.3 0.66 5 1 C6.35102132 4.68066705 5.62773517 6.83841646 4.25 10.4375 C3.90453125 11.36433594 3.5590625 12.29117188 3.203125 13.24609375 C2.00269413 15.99383325 0.59962682 18.46725753 -1 21 C-1.66 20.67 -2.32 20.34 -3 20 C-3.08139142 17.60347472 -3.14067009 15.20974564 -3.1875 12.8125 C-3.22520508 11.80219727 -3.22520508 11.80219727 -3.26367188 10.77148438 C-3.32923478 6.29135252 -2.66743649 3.60559001 0 0 Z " fill="#60CCF0" transform="translate(628,38)"/>
<path d="M0 0 C0.99 0.33 1.98 0.66 3 1 C4.15837626 5.05431692 3.83691257 7.21812119 2 11 C1.01 10.67 0.02 10.34 -1 10 C-1.02689216 8.52093108 -1.04634621 7.04172517 -1.0625 5.5625 C-1.07410156 4.73878906 -1.08570313 3.91507813 -1.09765625 3.06640625 C-1 1 -1 1 0 0 Z " fill="#60CCF0" transform="translate(855,47)"/>
</svg>
